<svg width="30" height="30" viewBox="0 0 24 30" fill="none" xmlns="http://www.w3.org/2000/svg">
<path d="M9 19H7C5.67392 19 4.40215 18.4732 3.46447 17.5355C2.52678 16.5979 2 15.3261 2 14C2 12.6739 2.52678 11.4021 3.46447 10.4645C4.40215 9.52678 5.67392 9 7 9H9" stroke="black" stroke-width="2" stroke-linecap="round" stroke-linejoin="round"/>
<path d="M15 9H17C18.3261 9 19.5979 9.52678 20.5355 10.4645C21.4732 11.4021 22 12.6739 22 14C22 15.3261 21.4732 16.5979 20.5355 17.5355C19.5979 18.4732 18.3261 19 17 19H15" stroke="black" stroke-width="2" stroke-linecap="round" stroke-linejoin="round"/>
<path d="M8 14H16" stroke="black" stroke-width="2" stroke-linecap="round" stroke-linejoin="round"/>
<path d="M12 29H10C8.67392 29 7.40215 28.5786 6.46447 27.8284C5.52678 27.0783 5 26.0609 5 25C5 23.9391 5.52678 22.9217 6.46447 22.1716C7.40215 21.4214 8.67392 21 10 21H12" stroke="black" stroke-width="2" stroke-linecap="round" stroke-linejoin="round"/>
<path d="M12 21H14C15.3261 21 16.5979 21.4214 17.5355 22.1716C18.4732 22.9217 19 23.9391 19 25C19 26.0609 18.4732 27.0783 17.5355 27.8284C16.5979 28.5786 15.3261 29 14 29H12" stroke="black" stroke-width="2" stroke-linecap="round" stroke-linejoin="round"/>
<path d="M12 1L12 6" stroke="black" stroke-width="2" stroke-linecap="round" stroke-linejoin="round"/>
</svg>
